<svg width="10" height="18" viewBox="0 0 10 18" fill="none" xmlns="http://www.w3.org/2000/svg">
<path d="M0.28498 17.699C0.455206 17.8731 0.68312 17.9791 0.925963 17.9972C1.16881 18.0152 1.40989 17.944 1.60398 17.797L1.69898 17.715L9.69898 9.89798C9.87116 9.72974 9.97688 9.50504 9.99672 9.26513C10.0166 9.02523 9.94919 8.78621 9.80698 8.59198L9.72698 8.49598L2.00398 0.313979C1.82945 0.128878 1.59094 0.0172553 1.337 0.00183905C1.08306 -0.0135772 0.832791 0.0683727 0.637153 0.231001C0.441514 0.39363 0.315213 0.62471 0.283969 0.87719C0.252725 1.12967 0.318888 1.38457 0.468982 1.58998L0.54898 1.68598L7.59798 9.15498L0.300979 16.285C0.126848 16.4552 0.0208149 16.6831 0.00277233 16.926C-0.0152702 17.1688 0.0559168 17.4099 0.202979 17.604L0.28498 17.699Z" fill="#333333"/>
</svg>
