<svg width="36" height="36" viewBox="0 0 36 36" fill="none" xmlns="http://www.w3.org/2000/svg">
<path fill-rule="evenodd" clip-rule="evenodd" d="M18.0052 30C18.0052 30 8.69922 22.544 8.69922 15.306C8.69922 12.8379 9.67967 10.4709 11.4249 8.72566C13.1701 6.98045 15.5371 6 18.0052 6C20.4733 6 22.8403 6.98045 24.5856 8.72566C26.3308 10.4709 27.3112 12.8379 27.3112 15.306C27.3112 22.544 18.0052 30 18.0052 30Z" stroke="#333333" stroke-width="1.7" stroke-linecap="round" stroke-linejoin="round"/>
<path d="M17.911 17.9071C19.4485 17.9071 20.695 16.6607 20.695 15.1231C20.695 13.5856 19.4485 12.3391 17.911 12.3391C16.3734 12.3391 15.127 13.5856 15.127 15.1231C15.127 16.6607 16.3734 17.9071 17.911 17.9071Z" stroke="#333333" stroke-width="1.7" stroke-linecap="square" stroke-linejoin="round"/>
</svg>
