<svg width="35" height="34" viewBox="0 0 35 34" fill="none" xmlns="http://www.w3.org/2000/svg">
<g clip-path="url(#clip0_42_1267)">
<mask id="mask0_42_1267" style="mask-type:alpha" maskUnits="userSpaceOnUse" x="0" y="0" width="35" height="34">
<path fill-rule="evenodd" clip-rule="evenodd" d="M17.3245 0.019043C7.94092 0.019043 0.333984 7.62599 0.333984 17.0097C0.333984 26.3931 7.94092 34 17.3245 34C26.708 34 34.3148 26.3931 34.3148 17.0097C34.3148 7.62599 26.708 0.019043 17.3245 0.019043Z" fill="white"/>
</mask>
<g mask="url(#mask0_42_1267)">
<path fill-rule="evenodd" clip-rule="evenodd" d="M17.3245 0.019043C7.94092 0.019043 0.333984 7.62599 0.333984 17.0097C0.333984 26.3931 7.94092 34 17.3245 34C26.708 34 34.3148 26.3931 34.3148 17.0097C34.3148 7.62599 26.708 0.019043 17.3245 0.019043Z" fill="url(#paint0_radial_42_1267)"/>
</g>
<path fill-rule="evenodd" clip-rule="evenodd" d="M14.5495 25.8261C14.3674 25.9467 14.1606 25.9609 13.9272 25.9596C13.9713 25.7545 14.0076 25.5748 14.0509 25.397C14.059 25.3639 14.0667 25.3129 14.1197 25.3129C14.281 25.3129 14.4238 25.3149 14.5717 25.3689C14.7246 25.4246 14.7162 25.7157 14.5495 25.8261ZM14.2314 26.8892C14.2711 27.0477 14.2913 27.2112 14.3152 27.3731C14.3298 27.4727 14.3812 27.514 14.4809 27.511C14.614 27.5071 14.7473 27.5112 14.8804 27.5099C15.0616 27.5082 15.0883 27.4778 15.0438 27.2961C14.965 26.975 14.9176 26.5813 14.7378 26.3336C14.7716 26.3164 14.8903 26.2721 14.9526 26.2387C15.2832 26.0616 15.4467 25.7435 15.3933 25.3835C15.3472 25.0738 15.1458 24.8622 14.7587 24.8141C14.3746 24.7664 13.9833 24.7724 13.595 24.7682C13.5716 24.7678 13.5231 24.7666 13.4958 24.7893C13.4658 24.8139 13.4577 24.8636 13.4518 24.8902C13.2697 25.7097 13.0967 26.5311 12.9218 27.352C12.8995 27.4565 12.9421 27.5094 13.0487 27.5098C13.1717 27.5102 13.295 27.5044 13.4175 27.5118C13.5408 27.5194 13.6037 27.4778 13.6267 27.3487C13.6707 27.1019 13.7265 26.8571 13.787 26.6138C13.8002 26.5613 13.8126 26.4702 13.8463 26.4715C13.8463 26.4715 13.995 26.4583 14.0333 26.4634C14.0719 26.4685 14.168 26.6359 14.2314 26.8892Z" fill="#C3C3C3"/>
<path fill-rule="evenodd" clip-rule="evenodd" d="M11.5723 26.1886C11.6352 25.9045 11.6951 25.633 11.7567 25.3618C11.7608 25.3437 11.7786 25.3137 11.7886 25.3141C11.9291 25.3216 12.0791 25.307 12.2051 25.355C12.2675 25.3788 12.3185 25.5199 12.3177 25.6074C12.3147 25.9754 12.0058 26.222 11.5723 26.1886ZM12.4304 24.8178C12.2152 24.7762 11.7739 24.7565 11.7735 24.7608C11.6198 24.7608 11.4661 24.7614 11.3123 24.7606C11.2176 24.76 11.1588 24.7989 11.1384 24.8966C10.9658 25.7136 10.7922 26.53 10.6177 27.3467C10.5931 27.4617 10.6403 27.511 10.7531 27.5105C10.8811 27.5097 11.0095 27.5067 11.1374 27.5118C11.2421 27.5159 11.2976 27.4766 11.3171 27.3697C11.3474 27.2035 11.3968 27.0405 11.4231 26.874C11.4324 26.8146 11.4421 26.768 11.4728 26.7431C11.5035 26.7182 11.5549 26.715 11.6131 26.7069C11.8601 26.6729 12.1134 26.6392 12.3466 26.5563C12.7934 26.3975 13.0212 26.0591 13.0336 25.5825C13.0446 25.1645 12.8418 24.8974 12.4304 24.8178Z" fill="#C3C3C3"/>
<path fill-rule="evenodd" clip-rule="evenodd" d="M18.4445 25.1837C18.6831 24.6816 18.5314 24.7725 19.1026 24.7622C19.1382 24.7615 19.1742 24.7609 19.2098 24.7633C19.3679 24.7738 19.4067 24.8329 19.3341 24.9692C18.9005 25.782 18.4663 26.5944 18.0259 27.4034C17.9982 27.4539 17.9189 27.5003 17.8602 27.5052C17.6975 27.519 17.5329 27.5085 17.3691 27.5106C17.2666 27.5117 17.2265 27.4628 17.2159 27.3627C17.1298 26.5588 17.0415 25.7552 16.9499 24.9519C16.9345 24.8171 16.9852 24.7598 17.1168 24.7614C17.2497 24.7631 17.383 24.7652 17.516 24.7614C17.6558 24.7571 17.7018 24.824 17.704 24.9585L17.7385 26.6903L18.4445 25.1837Z" fill="#C3C3C3"/>
<path fill-rule="evenodd" clip-rule="evenodd" d="M9.64926 26.2359C9.49467 26.2913 9.15277 26.3225 9.14466 26.3055C9.199 26.115 9.28924 25.9466 9.48943 25.8743C9.59349 25.8366 9.71694 25.8145 9.78208 25.9482C9.83007 26.0465 9.77207 26.192 9.64926 26.2359ZM10.0415 25.4105C9.80798 25.3295 9.56871 25.3304 9.33055 25.3894C8.61131 25.5675 8.33677 26.2856 8.40985 26.8806C8.45338 27.2344 8.66787 27.4667 9.02344 27.5095C9.26795 27.5388 9.52407 27.5301 9.76794 27.492C10.117 27.4373 10.1141 27.4192 10.1763 27.0711C10.2139 26.8606 10.1788 26.8384 9.97369 26.889C9.76191 26.9413 9.54504 26.9769 9.32833 27.0028C9.22267 27.0155 9.12496 26.9732 9.10749 26.8163C9.17247 26.8115 9.22792 26.8083 9.28321 26.8032C9.59492 26.7754 9.9076 26.7473 10.1801 26.5714C10.4192 26.4172 10.5136 26.1901 10.4804 25.9121C10.4488 25.648 10.2811 25.4936 10.0415 25.4105Z" fill="#C3C3C3"/>
<path fill-rule="evenodd" clip-rule="evenodd" d="M24.1192 27.3585C24.1031 27.5092 24.17 27.5096 24.4379 27.5079C24.717 27.5061 24.771 27.536 24.8038 27.4002L25.0014 26.4224L26.135 24.986C26.1674 24.9434 26.1989 24.8802 26.1862 24.8338C26.1679 24.7668 26.0881 24.7726 26.0881 24.7726H25.5448C25.4525 24.7726 25.4434 24.8085 25.4434 24.8085C25.3166 24.9784 24.8098 25.7539 24.7685 25.8079C24.7461 25.7281 24.6069 25.1762 24.564 24.9503C24.5451 24.8514 24.5051 24.796 24.4326 24.7764C24.4045 24.7688 23.9131 24.7737 23.888 24.778C23.7828 24.7955 23.7718 24.8511 23.8216 24.9949L24.3171 26.3916L24.1192 27.3585Z" fill="#C3C3C3"/>
<path fill-rule="evenodd" clip-rule="evenodd" d="M23.2389 26.9943C23.2369 26.9098 23.1883 26.8869 23.0742 26.9091C22.9237 26.9382 22.7749 26.9819 22.6231 26.9967C22.3432 27.0237 22.2386 26.9249 22.2315 26.6409C22.2224 26.2797 22.316 25.9406 22.4854 25.6246C22.6565 25.3053 22.9299 25.2001 23.2752 25.3064C23.5928 25.4041 23.5896 25.4034 23.6625 25.0698C23.6862 24.961 23.6565 24.9006 23.5557 24.8523C23.4428 24.798 23.2958 24.7257 23.0122 24.7095C22.4655 24.7095 22.1708 24.9157 21.9126 25.3089C21.6427 25.7201 21.5224 26.177 21.534 26.6632C21.5475 27.241 21.8708 27.5418 22.4515 27.5431C22.5535 27.5434 22.6559 27.5319 22.7571 27.5189C23.1047 27.4743 23.1509 27.4654 23.2054 27.2048C23.2132 27.1676 23.2394 27.0135 23.2389 26.9943Z" fill="#C3C3C3"/>
<path fill-rule="evenodd" clip-rule="evenodd" d="M16.584 24.7626C16.4663 24.7604 16.3482 24.7665 16.2308 24.7595C16.0918 24.7512 16.0338 24.8121 16.0058 24.9479C15.8557 25.6795 15.6976 26.4096 15.5407 27.1399C15.5281 27.1979 15.5176 27.2469 15.5101 27.288C15.5063 27.3085 15.5033 27.3274 15.5014 27.3443C15.4992 27.3613 15.4981 27.3765 15.4981 27.3902C15.4971 27.5106 15.578 27.5103 15.8393 27.51C15.9059 27.51 15.9725 27.5077 16.0389 27.5106C16.1299 27.5143 16.1801 27.4764 16.1998 27.3845C16.3738 26.5688 16.5494 25.7536 16.7262 24.9385C16.7527 24.8159 16.6998 24.7647 16.584 24.7626Z" fill="#C3C3C3"/>
<path fill-rule="evenodd" clip-rule="evenodd" d="M19.9999 26.4367L20.4575 25.5102L20.4997 26.4367H19.9999ZM21.2738 27.3057C21.2573 27.1325 21.2333 26.9602 21.2123 26.7876C21.1378 26.1731 21.0606 25.559 20.9903 24.9438C20.9749 24.8075 20.9104 24.7575 20.78 24.7626C20.6521 24.7673 20.5237 24.7697 20.3961 24.7613C20.2565 24.7522 20.1729 24.804 20.1049 24.9313C19.6907 25.7079 19.2679 26.4799 18.8485 27.2538L18.7889 27.3515C18.7274 27.5078 18.8485 27.5097 18.8485 27.5097H19.3809C19.5013 27.5097 19.5168 27.4427 19.5168 27.4427L19.7501 26.9737H20.4753C20.5598 26.9737 20.5523 27.0043 20.5523 27.0043C20.5523 27.0043 20.5496 27.1813 20.5598 27.3504C20.5703 27.5196 20.6497 27.5097 20.6497 27.5097H21.0874C21.2749 27.508 21.2914 27.493 21.2738 27.3057Z" fill="#C3C3C3"/>
<path fill-rule="evenodd" clip-rule="evenodd" d="M20.0805 29.3171C20.1266 29.3263 20.1758 29.3325 20.2494 29.3325C20.5171 29.3325 20.6925 29.1603 20.6925 28.9542C20.6925 28.7542 20.5478 28.6897 20.3757 28.6897C20.2926 28.6897 20.2341 28.6957 20.1971 28.7049L20.0805 29.3171ZM19.822 28.3913C19.9542 28.3575 20.1633 28.3359 20.3633 28.3359C20.5478 28.3359 20.7632 28.3667 20.9138 28.4742C21.0522 28.5697 21.1383 28.7141 21.1383 28.9142C21.1383 29.1755 21.0184 29.3725 20.8555 29.4985C20.6863 29.6309 20.4464 29.6892 20.1943 29.6892C20.1204 29.6892 20.0587 29.6831 20.0127 29.6769L19.8713 30.4243H19.4375L19.822 28.3913Z" fill="white"/>
<path fill-rule="evenodd" clip-rule="evenodd" d="M21.5344 28.3511H21.9772L21.6574 30.0366H22.454L22.3802 30.4241H21.1406L21.5344 28.3511Z" fill="white"/>
<path fill-rule="evenodd" clip-rule="evenodd" d="M23.4714 28.3511L23.2437 29.5446C23.2285 29.6153 23.2223 29.6982 23.2223 29.7907C23.2223 29.9565 23.3238 30.0859 23.5237 30.0859C23.7542 30.0859 23.9082 29.9321 23.9821 29.5476L24.2096 28.3511H24.6525L24.428 29.5291C24.3081 30.1566 24.0311 30.4581 23.4682 30.4581C23.0409 30.4581 22.7793 30.2396 22.7793 29.7967C22.7793 29.7074 22.7917 29.6059 22.8102 29.5075L23.0286 28.3511H23.4714Z" fill="white"/>
<path fill-rule="evenodd" clip-rule="evenodd" d="M24.7355 29.9445C24.8585 30.0183 25.0339 30.0766 25.2245 30.0766C25.3967 30.0766 25.5536 29.9967 25.5536 29.8337C25.5536 29.7168 25.4644 29.6399 25.2738 29.5415C25.0523 29.4216 24.8432 29.2616 24.8432 28.9909C24.8432 28.5725 25.2091 28.3174 25.6613 28.3174C25.9134 28.3174 26.0612 28.3727 26.1503 28.4219L26.0119 28.791C25.9442 28.7541 25.7968 28.6957 25.6246 28.6987C25.4184 28.6987 25.3106 28.8032 25.3106 28.9171C25.3106 29.0371 25.4368 29.111 25.6122 29.2093C25.8642 29.3415 26.0242 29.5109 26.0242 29.7568C26.0242 30.2182 25.6428 30.4551 25.1816 30.4551C24.8923 30.4551 24.6862 30.3812 24.5879 30.3073L24.7355 29.9445Z" fill="white"/>
<path fill-rule="evenodd" clip-rule="evenodd" d="M30.1754 19.7125C29.973 19.1026 29.5263 18.8411 28.8458 18.935C28.8256 18.9378 28.808 18.9407 28.7957 18.9415C28.4913 18.9543 28.1845 19.1793 27.6528 19.6679C27.0166 17.7281 26.22 15.52 25.6711 14.7738C24.8729 13.6886 23.9992 13.1294 23.2371 12.848C24.5631 12.1245 25.4626 10.7178 25.4626 9.10085C25.4626 6.74484 23.5526 4.83496 21.1966 4.83496C18.8407 4.83496 16.9308 6.74484 16.9308 9.10085C16.9308 10.7359 17.8511 12.1555 19.2014 12.8715C18.4635 13.16 17.5942 13.7176 16.7224 14.7738C16.0618 15.574 15.1932 18.2505 14.5861 20.334C14.2916 20.2973 14.0008 20.2519 13.7144 20.1987C14.4767 17.8733 15.2494 15.6441 15.6112 14.9895C16.4506 13.4708 17.5857 12.7433 17.5857 12.7433C14.6851 9.45118 16.8327 6.44504 17.2565 5.91502C16.9952 5.86084 16.7243 5.83224 16.4467 5.83224C14.2498 5.83224 12.4689 7.61327 12.4689 9.81008C12.4689 11.3347 13.327 12.6583 14.5861 13.3261C13.8982 13.5951 13.0876 14.1151 12.2746 15.0998C11.7587 15.7245 11.1075 17.5754 10.5768 19.3015C10.3007 19.1955 10.0353 19.0865 9.78032 18.9763C10.2018 17.7323 10.6046 16.5937 10.8709 15.9568C11.6863 14.0064 12.9972 13.287 12.9972 13.287C12.9972 13.287 10.0843 10.4505 12.5976 6.8211C12.2962 6.74452 11.9805 6.70353 11.6554 6.70353C9.54804 6.70353 7.83978 8.41179 7.83978 10.519C7.83978 11.9815 8.66293 13.2511 9.87073 13.8915C9.21074 14.1495 8.5058 14.6483 7.72602 15.593C7.45577 15.9202 7.14151 16.5988 6.82614 17.4167C6.55557 17.2435 6.40431 17.1352 6.39637 17.1295C6.19666 16.9844 5.91672 17.0284 5.77118 17.2284C5.62581 17.4283 5.66998 17.7083 5.86985 17.8536C6.05367 17.9876 10.4348 21.1337 15.7531 21.3285C20.881 21.5159 23.3753 19.9751 24.5737 19.2346L24.7415 19.1315C24.8188 19.0841 25.0807 18.9375 25.1965 19.0349C25.316 19.1358 25.3973 19.4879 25.2391 19.887C25.0016 20.4856 24.2671 21.206 23.7229 21.5301C23.3794 21.7349 23.1304 22.1971 23.3273 22.5869C23.7026 23.3305 24.9849 22.7924 25.4064 22.6154C26.1828 22.2894 27.0458 21.4715 27.8074 20.75C28.181 20.3958 28.6894 19.9141 28.8701 19.8336C28.899 19.831 28.9322 19.8269 28.9686 19.8218C29.2161 19.7875 29.2598 19.7966 29.3254 19.9944C29.4276 20.3018 30.2102 23.0877 26.3434 26.2183C26.1512 26.374 26.1215 26.6558 26.277 26.8479C26.3657 26.9572 26.4949 27.0139 26.6253 27.0139C26.7241 27.0139 26.8239 26.9814 26.9067 26.9142C30.1986 24.2491 30.7248 21.3691 30.1754 19.7125Z" fill="white"/>
</g>
<defs>
<radialGradient id="paint0_radial_42_1267" cx="0" cy="0" r="1" gradientUnits="userSpaceOnUse" gradientTransform="translate(11.4446 4.21135) scale(31.0439 31.044)">
<stop stop-color="#BCBCBA"/>
<stop offset="1" stop-color="#676766"/>
</radialGradient>
<clipPath id="clip0_42_1267">
<rect width="34" height="34" fill="white" transform="translate(0.333984)"/>
</clipPath>
</defs>
</svg>
