<svg width="103" height="32" viewBox="0 0 103 32" fill="none" xmlns="http://www.w3.org/2000/svg">
<g clip-path="url(#clip0_42_1288)">
<g opacity="0.5">
<path d="M21.4049 19.7606V24.7035H19.0039V11.453H21.3878V12.7675C22.0183 11.8385 23.0878 11.2603 24.367 11.2603C26.7509 11.2603 28.9233 13.1706 28.9233 16.1873C28.9233 19.204 26.7151 21.1126 24.3841 21.1126C23.1054 21.1103 22.036 20.6373 21.4049 19.7606ZM26.5053 16.168C26.5053 14.6778 25.3489 13.5038 23.894 13.5038C22.4044 13.5038 21.265 14.6977 21.265 16.168C21.265 17.6382 22.4021 18.8316 23.894 18.8316C25.3489 18.8316 26.5053 17.6576 26.5053 16.168Z" fill="black"/>
<path d="M50.8691 11.453H53.2855V12.5748C53.8637 11.7526 54.775 11.2603 55.9144 11.2603C57.3358 11.2603 58.2983 11.8385 58.8066 12.855C59.4024 11.8737 60.4713 11.2631 61.7682 11.2631C64.1697 11.2631 65.379 12.7351 65.379 15.1014V20.9176H62.8899V15.4482C62.8899 14.1684 62.364 13.3798 61.1376 13.3798C60.0506 13.3798 59.3319 14.1189 59.3319 15.6057V20.9176H56.861V15.3788C56.861 14.1172 56.3351 13.381 55.1605 13.381C54.0234 13.381 53.3031 14.1348 53.3031 15.6597V20.9176H50.8691V11.453Z" fill="black"/>
<path d="M71.5128 11.2759C69.4939 11.2759 67.8252 12.3976 67.0389 14.0436C66.7163 14.723 66.5502 15.4661 66.5528 16.2183C66.5528 18.97 68.5154 21.126 71.5651 21.126C73.5607 21.126 74.8627 20.3385 75.8036 19.1042L73.8256 17.962C73.3486 18.6261 72.6317 19.0422 71.6004 19.0422C70.1983 19.0422 69.1988 18.2707 68.8838 17.0438H76.3398C76.3807 16.7711 76.4014 16.4957 76.4017 16.22V16.1301C76.4029 13.3266 74.3498 11.2759 71.5128 11.2759ZM68.9543 15.1494C69.3398 14.0453 70.2864 13.3266 71.5128 13.3266C72.7744 13.3266 73.6858 13.9753 74.0013 15.1494H68.9543Z" fill="black"/>
<path d="M77.6094 11.4527H80.028V12.6467C80.6415 11.7882 81.6199 11.2622 82.7974 11.2622C85.0409 11.2622 86.4605 12.7342 86.4605 15.2057V20.9173H83.9891V15.573C83.9891 14.2238 83.3403 13.3824 82.0611 13.3824C80.924 13.3824 80.0456 14.2238 80.0456 15.6958V20.9173H77.6094V11.4527Z" fill="black"/>
<path d="M87.1035 11.4528H88.8558V9.40203L91.2397 8V11.4528H93.7282V13.5911H91.2397V17.4822C91.2397 18.4812 91.6604 18.8314 92.2739 18.8314C92.6065 18.8314 92.8697 18.7262 93.15 18.4812L94.2541 20.3739C93.6407 20.8287 92.8697 21.0925 91.993 21.0925C90.0128 21.0925 88.8558 20.1459 88.8558 17.5675V13.5877H87.1035V11.4528Z" fill="black"/>
<path d="M37.2164 12.6623C36.5682 11.7862 35.534 11.2603 34.2895 11.2603C31.8709 11.2603 29.6973 13.1706 29.6973 16.185C29.6973 19.1995 31.9232 21.1103 34.2548 21.1103C35.4817 21.1103 36.5506 20.5492 37.2164 19.6207V20.9176H39.6003V11.4559H37.2164V12.6623ZM34.7278 18.8316C33.2729 18.8316 32.0989 17.6576 32.0989 16.168C32.0989 14.6784 33.2729 13.5038 34.7278 13.5038C36.2174 13.5038 37.3568 14.6977 37.3568 16.168C37.3568 17.6382 36.2174 18.8316 34.7278 18.8316Z" fill="black"/>
<path d="M47.6681 11.4526L45.3371 17.552L42.8832 11.4526H40.3066L44.1101 20.5141L44.1596 20.6324L42.6251 24.6474L42.6171 24.6679H45.1409L50.1919 11.4526H47.6681Z" fill="black"/>
<path d="M96.5124 17.8556C96.9354 18.6953 97.6905 19.1314 98.6894 19.1291C99.6713 19.1263 100.196 18.6521 100.195 18.091C100.195 17.4087 99.1755 17.2523 97.9651 17.0107C96.3692 16.6821 94.597 16.196 94.5913 14.1976C94.5873 12.6056 96.1264 11.2138 98.4574 11.2252C100.31 11.2201 101.47 11.8648 102.332 12.9627L100.324 14.1299C99.9362 13.4999 99.3392 13.1332 98.4625 13.1355C97.5159 13.1383 97.0611 13.525 97.0628 14.0509C97.0628 14.6467 97.836 14.8025 99.2233 15.097C100.801 15.408 102.662 15.9464 102.667 17.9795C102.671 19.4521 101.359 21.1207 98.6081 21.1105C96.5329 21.1162 95.161 20.4004 94.3667 19.103L94.3633 19.0973L96.5124 17.8556Z" fill="black"/>
<path d="M15.2208 15.6027C15.0411 14.0645 14.307 12.6444 13.1558 11.6084C12.0047 10.5723 10.5154 9.99132 8.96679 9.97412H8.89629C8.64931 9.97423 8.40254 9.98846 8.15718 10.0168C7.28926 10.1167 6.45134 10.3948 5.69595 10.8338C5.67946 10.8434 5.66411 10.8531 5.64762 10.8622L5.60555 10.8872C1.96458 13.0556 0.666016 18.0634 0.666016 21.1102L3.59801 19.4177C4.63163 21.3865 6.61415 22.684 8.82466 22.7078H8.89516C9.14215 22.7075 9.38892 22.6931 9.63427 22.6646C11.3115 22.4688 12.8422 21.6149 13.8899 20.2905C14.9375 18.9662 15.4163 17.28 15.2208 15.6027Z" fill="black"/>
</g>
</g>
<defs>
<clipPath id="clip0_42_1288">
<rect width="102" height="32" fill="white" transform="translate(0.666016)"/>
</clipPath>
</defs>
</svg>
